<svg xmlns="http://www.w3.org/2000/svg" viewBox="0 0 40.61 40.61">
	<path d="M9.24,38A19.57,19.57,0,0,1,3.32,23.63,19.59,19.59,0,0,1,9.24,9.24,19.58,19.58,0,0,1,23.63,3.32,19.59,19.59,0,0,1,38,9.24a19.59,19.59,0,0,1,5.92,14.39A19.57,19.57,0,0,1,38,38a20,20,0,0,1-14.38,5.92A19.58,19.58,0,0,1,9.24,38Zm10.37-20.1H6.49l10.58,7.83-4,12.48,10.58-7.61,10.78,7.61-4-12.48L41,17.91H27.86L23.63,5.43Z" transform="translate(-3.32 -3.32)"/>
	<style>@media(prefers-color-scheme:dark){path{fill:#F3E195;}}</style>
</svg>